<svg width="351" height="322" viewBox="0 0 351 322" fill="none" xmlns="http://www.w3.org/2000/svg">
<rect x="0.5" y="0.5" width="350" height="321" rx="8.5" fill="white"/>
<path d="M267.012 298V288.047H269.951C270.831 288.047 271.61 288.243 272.289 288.635C272.973 289.027 273.501 289.583 273.875 290.303C274.249 291.023 274.436 291.848 274.436 292.777V293.276C274.436 294.22 274.246 295.049 273.868 295.765C273.494 296.48 272.959 297.032 272.262 297.419C271.569 297.806 270.774 298 269.876 298H267.012ZM268.741 289.441V296.619H269.869C270.776 296.619 271.471 296.337 271.954 295.771C272.442 295.202 272.69 294.386 272.699 293.324V292.771C272.699 291.69 272.465 290.866 271.995 290.296C271.526 289.726 270.844 289.441 269.951 289.441H268.741ZM278.955 298.137C277.902 298.137 277.048 297.806 276.391 297.146C275.74 296.48 275.414 295.596 275.414 294.493V294.288C275.414 293.55 275.555 292.891 275.838 292.312C276.125 291.729 276.526 291.276 277.041 290.952C277.556 290.629 278.13 290.467 278.763 290.467C279.771 290.467 280.548 290.788 281.095 291.431C281.646 292.073 281.922 292.982 281.922 294.158V294.828H277.089C277.139 295.439 277.342 295.922 277.697 296.277C278.057 296.633 278.508 296.811 279.051 296.811C279.812 296.811 280.431 296.503 280.91 295.888L281.805 296.742C281.509 297.184 281.113 297.528 280.616 297.774C280.124 298.016 279.57 298.137 278.955 298.137ZM278.757 291.8C278.301 291.8 277.932 291.959 277.649 292.278C277.371 292.597 277.193 293.042 277.116 293.611H280.281V293.488C280.245 292.932 280.096 292.513 279.837 292.23C279.577 291.943 279.217 291.8 278.757 291.8ZM284.999 288.806V290.604H286.304V291.834H284.999V295.963C284.999 296.245 285.053 296.451 285.163 296.578C285.277 296.701 285.477 296.763 285.764 296.763C285.956 296.763 286.149 296.74 286.345 296.694V297.979C285.967 298.084 285.602 298.137 285.252 298.137C283.976 298.137 283.337 297.433 283.337 296.024V291.834H282.121V290.604H283.337V288.806H284.999ZM291.699 298C291.626 297.859 291.562 297.629 291.507 297.31C290.979 297.861 290.331 298.137 289.566 298.137C288.823 298.137 288.217 297.925 287.747 297.501C287.278 297.077 287.043 296.553 287.043 295.929C287.043 295.14 287.335 294.536 287.918 294.117C288.506 293.693 289.345 293.481 290.434 293.481H291.453V292.996C291.453 292.613 291.345 292.308 291.131 292.08C290.917 291.848 290.591 291.731 290.154 291.731C289.775 291.731 289.466 291.827 289.224 292.019C288.982 292.205 288.862 292.445 288.862 292.736H287.201C287.201 292.331 287.335 291.952 287.604 291.602C287.873 291.246 288.237 290.968 288.698 290.768C289.163 290.567 289.68 290.467 290.249 290.467C291.115 290.467 291.806 290.686 292.321 291.123C292.836 291.556 293.1 292.167 293.114 292.955V296.291C293.114 296.956 293.207 297.487 293.394 297.884V298H291.699ZM289.873 296.804C290.202 296.804 290.509 296.724 290.796 296.564C291.088 296.405 291.307 296.191 291.453 295.922V294.527H290.557C289.942 294.527 289.479 294.634 289.169 294.849C288.859 295.063 288.704 295.366 288.704 295.758C288.704 296.077 288.809 296.332 289.019 296.523C289.233 296.71 289.518 296.804 289.873 296.804ZM296.321 298H294.659V290.604H296.321V298ZM294.557 288.683C294.557 288.427 294.637 288.215 294.796 288.047C294.96 287.878 295.193 287.794 295.493 287.794C295.794 287.794 296.027 287.878 296.191 288.047C296.355 288.215 296.437 288.427 296.437 288.683C296.437 288.933 296.355 289.143 296.191 289.312C296.027 289.476 295.794 289.558 295.493 289.558C295.193 289.558 294.96 289.476 294.796 289.312C294.637 289.143 294.557 288.933 294.557 288.683ZM299.603 298H297.941V287.5H299.603V298ZM305.263 295.99C305.263 295.694 305.14 295.468 304.894 295.313C304.653 295.159 304.249 295.022 303.684 294.903C303.119 294.785 302.648 294.634 302.269 294.452C301.44 294.051 301.025 293.47 301.025 292.709C301.025 292.071 301.294 291.538 301.832 291.109C302.37 290.681 303.053 290.467 303.883 290.467C304.767 290.467 305.48 290.686 306.022 291.123C306.569 291.561 306.843 292.128 306.843 292.825H305.181C305.181 292.506 305.063 292.242 304.826 292.032C304.589 291.818 304.275 291.711 303.883 291.711C303.518 291.711 303.22 291.795 302.987 291.964C302.759 292.132 302.645 292.358 302.645 292.641C302.645 292.896 302.752 293.094 302.967 293.235C303.181 293.377 303.614 293.52 304.265 293.666C304.917 293.807 305.428 293.978 305.797 294.179C306.17 294.375 306.446 294.612 306.624 294.89C306.806 295.168 306.897 295.505 306.897 295.901C306.897 296.567 306.622 297.107 306.07 297.521C305.519 297.932 304.796 298.137 303.903 298.137C303.297 298.137 302.757 298.027 302.283 297.809C301.809 297.59 301.44 297.289 301.176 296.906C300.911 296.523 300.779 296.111 300.779 295.669H302.392C302.415 296.061 302.563 296.364 302.837 296.578C303.11 296.788 303.472 296.893 303.924 296.893C304.361 296.893 304.694 296.811 304.922 296.646C305.15 296.478 305.263 296.259 305.263 295.99Z" fill="#4A4DE6"/>
<path d="M318.443 296.443L321.878 293L318.443 289.557L319.5 288.5L324 293L319.5 297.5L318.443 296.443Z" fill="#4A4DE6"/>
<rect width="349" height="1" transform="matrix(1 0 0 -1 1 265)" fill="#E6E7E9"/>
<path d="M28.1016 33.0703C28.1016 32.5703 27.9245 32.1849 27.5703 31.9141C27.2214 31.6432 26.5885 31.3698 25.6719 31.0938C24.7552 30.8177 24.026 30.5104 23.4844 30.1719C22.4479 29.5208 21.9297 28.6719 21.9297 27.625C21.9297 26.7083 22.3021 25.9531 23.0469 25.3594C23.7969 24.7656 24.7682 24.4688 25.9609 24.4688C26.7526 24.4688 27.4583 24.6146 28.0781 24.9062C28.6979 25.1979 29.1849 25.6146 29.5391 26.1562C29.8932 26.6927 30.0703 27.2891 30.0703 27.9453H28.1016C28.1016 27.3516 27.9141 26.888 27.5391 26.5547C27.1693 26.2161 26.638 26.0469 25.9453 26.0469C25.2995 26.0469 24.7969 26.1849 24.4375 26.4609C24.0833 26.737 23.9062 27.1224 23.9062 27.6172C23.9062 28.0339 24.099 28.3828 24.4844 28.6641C24.8698 28.9401 25.5052 29.2109 26.3906 29.4766C27.276 29.737 27.987 30.0365 28.5234 30.375C29.0599 30.7083 29.4531 31.0938 29.7031 31.5312C29.9531 31.9635 30.0781 32.4714 30.0781 33.0547C30.0781 34.0026 29.7135 34.7578 28.9844 35.3203C28.2604 35.8776 27.276 36.1562 26.0312 36.1562C25.2083 36.1562 24.4505 36.0052 23.7578 35.7031C23.0703 35.3958 22.5339 34.974 22.1484 34.4375C21.7682 33.901 21.5781 33.276 21.5781 32.5625H23.5547C23.5547 33.2083 23.7682 33.7083 24.1953 34.0625C24.6224 34.4167 25.2344 34.5938 26.0312 34.5938C26.7188 34.5938 27.2344 34.4557 27.5781 34.1797C27.9271 33.8984 28.1016 33.5286 28.1016 33.0703ZM36.2797 36C36.1964 35.8385 36.1234 35.5755 36.0609 35.2109C35.4568 35.8411 34.7172 36.1562 33.8422 36.1562C32.9932 36.1562 32.3005 35.9141 31.7641 35.4297C31.2276 34.9453 30.9594 34.3464 30.9594 33.6328C30.9594 32.7318 31.2927 32.0417 31.9594 31.5625C32.6313 31.0781 33.5896 30.8359 34.8344 30.8359H35.9984V30.2812C35.9984 29.8438 35.876 29.4948 35.6313 29.2344C35.3865 28.9688 35.0141 28.8359 34.5141 28.8359C34.0818 28.8359 33.7276 28.9453 33.4516 29.1641C33.1755 29.3776 33.0375 29.651 33.0375 29.9844H31.1391C31.1391 29.5208 31.2927 29.0885 31.6 28.6875C31.9073 28.2812 32.324 27.9635 32.85 27.7344C33.3813 27.5052 33.9724 27.3906 34.6234 27.3906C35.613 27.3906 36.4021 27.6406 36.9906 28.1406C37.5792 28.6354 37.8813 29.3333 37.8969 30.2344V34.0469C37.8969 34.8073 38.0036 35.4141 38.2172 35.8672V36H36.2797ZM34.1938 34.6328C34.5688 34.6328 34.9203 34.5417 35.2484 34.3594C35.5818 34.1771 35.8318 33.9323 35.9984 33.625V32.0312H34.975C34.2719 32.0312 33.7432 32.1536 33.3891 32.3984C33.0349 32.6432 32.8578 32.9896 32.8578 33.4375C32.8578 33.8021 32.9776 34.0938 33.2172 34.3125C33.462 34.526 33.7875 34.6328 34.1938 34.6328ZM41.8641 25.4922V27.5469H43.3563V28.9531H41.8641V33.6719C41.8641 33.9948 41.9266 34.2292 42.0516 34.375C42.1818 34.5156 42.4109 34.5859 42.7391 34.5859C42.9578 34.5859 43.1792 34.5599 43.4031 34.5078V35.9766C42.9708 36.0964 42.5542 36.1562 42.1531 36.1562C40.6948 36.1562 39.9656 35.3516 39.9656 33.7422V28.9531H38.575V27.5469H39.9656V25.4922H41.8641ZM46.4328 36H44.5344V27.5469H46.4328V36ZM44.4172 25.3516C44.4172 25.0599 44.5083 24.8177 44.6906 24.625C44.8781 24.4323 45.1437 24.3359 45.4875 24.3359C45.8312 24.3359 46.0969 24.4323 46.2844 24.625C46.4719 24.8177 46.5656 25.0599 46.5656 25.3516C46.5656 25.638 46.4719 25.8776 46.2844 26.0703C46.0969 26.2578 45.8312 26.3516 45.4875 26.3516C45.1437 26.3516 44.8781 26.2578 44.6906 26.0703C44.5083 25.8776 44.4172 25.638 44.4172 25.3516ZM52.8453 33.7031C52.8453 33.3646 52.7047 33.1068 52.4234 32.9297C52.1474 32.7526 51.6865 32.5964 51.0406 32.4609C50.3948 32.3255 49.8557 32.1536 49.4234 31.9453C48.4755 31.487 48.0016 30.8229 48.0016 29.9531C48.0016 29.224 48.3089 28.6146 48.9234 28.125C49.538 27.6354 50.3193 27.3906 51.2672 27.3906C52.2776 27.3906 53.0927 27.6406 53.7125 28.1406C54.3375 28.6406 54.65 29.2891 54.65 30.0859H52.7516C52.7516 29.7214 52.6161 29.4193 52.3453 29.1797C52.0745 28.9349 51.7151 28.8125 51.2672 28.8125C50.8505 28.8125 50.5094 28.9089 50.2437 29.1016C49.9833 29.2943 49.8531 29.5521 49.8531 29.875C49.8531 30.1667 49.9755 30.3932 50.2203 30.5547C50.4651 30.7161 50.9599 30.8802 51.7047 31.0469C52.4495 31.2083 53.0328 31.4036 53.4547 31.6328C53.8818 31.8568 54.1969 32.1276 54.4 32.4453C54.6083 32.763 54.7125 33.1484 54.7125 33.6016C54.7125 34.362 54.3974 34.9792 53.7672 35.4531C53.137 35.9219 52.3115 36.1562 51.2906 36.1562C50.5979 36.1562 49.9807 36.0312 49.4391 35.7812C48.8974 35.5312 48.4755 35.1875 48.1734 34.75C47.8714 34.3125 47.7203 33.8411 47.7203 33.3359H49.5641C49.5901 33.7839 49.7594 34.1302 50.0719 34.375C50.3844 34.6146 50.7984 34.7344 51.3141 34.7344C51.8141 34.7344 52.1943 34.6406 52.4547 34.4531C52.7151 34.2604 52.8453 34.0104 52.8453 33.7031ZM56.6406 36V28.9531H55.3516V27.5469H56.6406V26.7734C56.6406 25.8359 56.901 25.112 57.4219 24.6016C57.9427 24.0911 58.6719 23.8359 59.6094 23.8359C59.9427 23.8359 60.2969 23.8828 60.6719 23.9766L60.625 25.4609C60.4167 25.4193 60.1745 25.3984 59.8984 25.3984C58.9922 25.3984 58.5391 25.8646 58.5391 26.7969V27.5469H60.2578V28.9531H58.5391V36H56.6406ZM66.2953 36C66.212 35.8385 66.1391 35.5755 66.0766 35.2109C65.4724 35.8411 64.7328 36.1562 63.8578 36.1562C63.0089 36.1562 62.3161 35.9141 61.7797 35.4297C61.2432 34.9453 60.975 34.3464 60.975 33.6328C60.975 32.7318 61.3083 32.0417 61.975 31.5625C62.6469 31.0781 63.6052 30.8359 64.85 30.8359H66.0141V30.2812C66.0141 29.8438 65.8917 29.4948 65.6469 29.2344C65.4021 28.9688 65.0297 28.8359 64.5297 28.8359C64.0974 28.8359 63.7432 28.9453 63.4672 29.1641C63.1911 29.3776 63.0531 29.651 63.0531 29.9844H61.1547C61.1547 29.5208 61.3083 29.0885 61.6156 28.6875C61.9229 28.2812 62.3396 27.9635 62.8656 27.7344C63.3969 27.5052 63.988 27.3906 64.6391 27.3906C65.6286 27.3906 66.4177 27.6406 67.0062 28.1406C67.5948 28.6354 67.8969 29.3333 67.9125 30.2344V34.0469C67.9125 34.8073 68.0193 35.4141 68.2328 35.8672V36H66.2953ZM64.2094 34.6328C64.5844 34.6328 64.9359 34.5417 65.2641 34.3594C65.5974 34.1771 65.8474 33.9323 66.0141 33.625V32.0312H64.9906C64.2875 32.0312 63.7589 32.1536 63.4047 32.3984C63.0505 32.6432 62.8734 32.9896 62.8734 33.4375C62.8734 33.8021 62.9932 34.0938 63.2328 34.3125C63.4776 34.526 63.8031 34.6328 64.2094 34.6328ZM72.9734 34.6406C73.4474 34.6406 73.8406 34.5026 74.1531 34.2266C74.4656 33.9505 74.6323 33.6094 74.6531 33.2031H76.4422C76.4214 33.7292 76.2573 34.2214 75.95 34.6797C75.6427 35.1328 75.226 35.4922 74.7 35.7578C74.174 36.0234 73.6063 36.1562 72.9969 36.1562C71.8146 36.1562 70.8771 35.7734 70.1844 35.0078C69.4917 34.2422 69.1453 33.1849 69.1453 31.8359V31.6406C69.1453 30.3542 69.4891 29.3255 70.1766 28.5547C70.8641 27.7786 71.8016 27.3906 72.9891 27.3906C73.9943 27.3906 74.812 27.6849 75.4422 28.2734C76.0776 28.8568 76.4109 29.625 76.4422 30.5781H74.6531C74.6323 30.0938 74.4656 29.6953 74.1531 29.3828C73.8458 29.0703 73.4526 28.9141 72.9734 28.9141C72.3589 28.9141 71.8849 29.138 71.5516 29.5859C71.2182 30.0286 71.049 30.7031 71.0438 31.6094V31.9141C71.0438 32.8307 71.2078 33.5156 71.5359 33.9688C71.8693 34.4167 72.3484 34.6406 72.9734 34.6406ZM79.8547 25.4922V27.5469H81.3469V28.9531H79.8547V33.6719C79.8547 33.9948 79.9172 34.2292 80.0422 34.375C80.1724 34.5156 80.4016 34.5859 80.7297 34.5859C80.9484 34.5859 81.1698 34.5599 81.3937 34.5078V35.9766C80.9615 36.0964 80.5448 36.1562 80.1437 36.1562C78.6854 36.1562 77.9562 35.3516 77.9562 33.7422V28.9531H76.5656V27.5469H77.9562V25.4922H79.8547ZM84.4234 36H82.525V27.5469H84.4234V36ZM82.4078 25.3516C82.4078 25.0599 82.499 24.8177 82.6813 24.625C82.8688 24.4323 83.1344 24.3359 83.4781 24.3359C83.8219 24.3359 84.0875 24.4323 84.275 24.625C84.4625 24.8177 84.5563 25.0599 84.5563 25.3516C84.5563 25.638 84.4625 25.8776 84.275 26.0703C84.0875 26.2578 83.8219 26.3516 83.4781 26.3516C83.1344 26.3516 82.8688 26.2578 82.6813 26.0703C82.499 25.8776 82.4078 25.638 82.4078 25.3516ZM85.7422 31.6953C85.7422 30.8672 85.9062 30.1224 86.2344 29.4609C86.5625 28.7943 87.0234 28.2839 87.6172 27.9297C88.2109 27.5703 88.8932 27.3906 89.6641 27.3906C90.8047 27.3906 91.7292 27.7578 92.4375 28.4922C93.151 29.2266 93.5365 30.2005 93.5938 31.4141L93.6016 31.8594C93.6016 32.6927 93.4401 33.4375 93.1172 34.0938C92.7995 34.75 92.3411 35.2578 91.7422 35.6172C91.1484 35.9766 90.4609 36.1562 89.6797 36.1562C88.487 36.1562 87.5312 35.7604 86.8125 34.9688C86.099 34.1719 85.7422 33.112 85.7422 31.7891V31.6953ZM87.6406 31.8594C87.6406 32.7292 87.8203 33.4115 88.1797 33.9062C88.5391 34.3958 89.0391 34.6406 89.6797 34.6406C90.3203 34.6406 90.8177 34.3906 91.1719 33.8906C91.5312 33.3906 91.7109 32.6589 91.7109 31.6953C91.7109 30.8411 91.526 30.1641 91.1562 29.6641C90.7917 29.1641 90.2943 28.9141 89.6641 28.9141C89.0443 28.9141 88.5521 29.1615 88.1875 29.6562C87.8229 30.1458 87.6406 30.8802 87.6406 31.8594ZM96.5687 27.5469L96.6234 28.5234C97.2484 27.7682 98.0687 27.3906 99.0844 27.3906C100.845 27.3906 101.741 28.3984 101.772 30.4141V36H99.8734V30.5234C99.8734 29.987 99.7562 29.5911 99.5219 29.3359C99.2927 29.0755 98.9151 28.9453 98.3891 28.9453C97.6234 28.9453 97.0531 29.2917 96.6781 29.9844V36H94.7797V27.5469H96.5687ZM111.323 29.2812C111.073 29.2396 110.816 29.2188 110.55 29.2188C109.68 29.2188 109.094 29.5521 108.792 30.2188V36H106.894V27.5469H108.706L108.753 28.4922C109.211 27.7578 109.847 27.3906 110.659 27.3906C110.93 27.3906 111.154 27.4271 111.331 27.5L111.323 29.2812ZM116.939 36C116.856 35.8385 116.783 35.5755 116.72 35.2109C116.116 35.8411 115.377 36.1562 114.502 36.1562C113.653 36.1562 112.96 35.9141 112.423 35.4297C111.887 34.9453 111.619 34.3464 111.619 33.6328C111.619 32.7318 111.952 32.0417 112.619 31.5625C113.291 31.0781 114.249 30.8359 115.494 30.8359H116.658V30.2812C116.658 29.8438 116.535 29.4948 116.291 29.2344C116.046 28.9688 115.673 28.8359 115.173 28.8359C114.741 28.8359 114.387 28.9453 114.111 29.1641C113.835 29.3776 113.697 29.651 113.697 29.9844H111.798C111.798 29.5208 111.952 29.0885 112.259 28.6875C112.567 28.2812 112.983 27.9635 113.509 27.7344C114.041 27.5052 114.632 27.3906 115.283 27.3906C116.272 27.3906 117.061 27.6406 117.65 28.1406C118.239 28.6354 118.541 29.3333 118.556 30.2344V34.0469C118.556 34.8073 118.663 35.4141 118.877 35.8672V36H116.939ZM114.853 34.6328C115.228 34.6328 115.58 34.5417 115.908 34.3594C116.241 34.1771 116.491 33.9323 116.658 33.625V32.0312H115.634C114.931 32.0312 114.403 32.1536 114.048 32.3984C113.694 32.6432 113.517 32.9896 113.517 33.4375C113.517 33.8021 113.637 34.0938 113.877 34.3125C114.121 34.526 114.447 34.6328 114.853 34.6328ZM122.523 25.4922V27.5469H124.016V28.9531H122.523V33.6719C122.523 33.9948 122.586 34.2292 122.711 34.375C122.841 34.5156 123.07 34.5859 123.398 34.5859C123.617 34.5859 123.839 34.5599 124.062 34.5078V35.9766C123.63 36.0964 123.214 36.1562 122.812 36.1562C121.354 36.1562 120.625 35.3516 120.625 33.7422V28.9531H119.234V27.5469H120.625V25.4922H122.523ZM128.795 36.1562C127.592 36.1562 126.616 35.7786 125.866 35.0234C125.121 34.263 124.748 33.2526 124.748 31.9922V31.7578C124.748 30.9141 124.91 30.1615 125.233 29.5C125.561 28.8333 126.019 28.3151 126.608 27.9453C127.196 27.5755 127.853 27.3906 128.577 27.3906C129.728 27.3906 130.616 27.7578 131.241 28.4922C131.871 29.2266 132.186 30.2656 132.186 31.6094V32.375H126.662C126.72 33.0729 126.952 33.625 127.358 34.0312C127.769 34.4375 128.285 34.6406 128.905 34.6406C129.774 34.6406 130.483 34.2891 131.03 33.5859L132.053 34.5625C131.715 35.0677 131.261 35.4609 130.694 35.7422C130.131 36.0182 129.498 36.1562 128.795 36.1562ZM128.569 28.9141C128.048 28.9141 127.626 29.0964 127.303 29.4609C126.985 29.8255 126.782 30.3333 126.694 30.9844H130.311V30.8438C130.269 30.2083 130.1 29.7292 129.803 29.4062C129.506 29.0781 129.095 28.9141 128.569 28.9141Z" fill="#181819" fill-opacity="0.9"/>
<path d="M27.6445 58.6045H23.4678V63H22.1553V53.0469H28.3213V54.127H23.4678V57.5312H27.6445V58.6045ZM32.5928 56.7383C32.4014 56.7064 32.194 56.6904 31.9707 56.6904C31.1413 56.6904 30.5785 57.0436 30.2822 57.75V63H29.0176V55.6035H30.248L30.2686 56.458C30.6833 55.7972 31.2712 55.4668 32.0322 55.4668C32.2783 55.4668 32.4652 55.4987 32.5928 55.5625V56.7383ZM32.79 59.2334C32.79 58.5088 32.9313 57.8571 33.2139 57.2783C33.501 56.6995 33.8975 56.2529 34.4033 55.9385C34.9137 55.624 35.4948 55.4668 36.1465 55.4668C37.1536 55.4668 37.9671 55.8154 38.5869 56.5127C39.2113 57.21 39.5234 58.1374 39.5234 59.2949V59.3838C39.5234 60.1038 39.3844 60.751 39.1064 61.3252C38.833 61.8949 38.4388 62.3392 37.9238 62.6582C37.4134 62.9772 36.8255 63.1367 36.1602 63.1367C35.1576 63.1367 34.3441 62.7881 33.7197 62.0908C33.0999 61.3936 32.79 60.4707 32.79 59.3223V59.2334ZM34.0615 59.3838C34.0615 60.2041 34.2507 60.8626 34.6289 61.3594C35.0117 61.8561 35.5221 62.1045 36.1602 62.1045C36.8027 62.1045 37.3132 61.8538 37.6914 61.3525C38.0697 60.8467 38.2588 60.1403 38.2588 59.2334C38.2588 58.4222 38.0651 57.766 37.6777 57.2646C37.2949 56.7588 36.7845 56.5059 36.1465 56.5059C35.5221 56.5059 35.0186 56.7542 34.6357 57.251C34.2529 57.7477 34.0615 58.4587 34.0615 59.3838ZM41.7988 55.6035L41.833 56.4238C42.3753 55.7858 43.1068 55.4668 44.0273 55.4668C45.0618 55.4668 45.766 55.8633 46.1396 56.6562C46.3857 56.3008 46.7048 56.0137 47.0967 55.7949C47.4932 55.5762 47.9603 55.4668 48.498 55.4668C50.1204 55.4668 50.9453 56.3258 50.9727 58.0439V63H49.708V58.1191C49.708 57.5905 49.5872 57.1963 49.3457 56.9365C49.1042 56.6722 48.6986 56.54 48.1289 56.54C47.6595 56.54 47.2699 56.6813 46.96 56.9639C46.6501 57.2419 46.4701 57.6178 46.4199 58.0918V63H45.1484V58.1533C45.1484 57.0778 44.6221 56.54 43.5693 56.54C42.7399 56.54 42.1725 56.8932 41.8672 57.5996V63H40.6025V55.6035H41.7988ZM59.9258 63C59.8529 62.8542 59.7936 62.5944 59.748 62.2207C59.1602 62.8314 58.4583 63.1367 57.6426 63.1367C56.9134 63.1367 56.3141 62.9316 55.8447 62.5215C55.3799 62.1068 55.1475 61.5827 55.1475 60.9492C55.1475 60.179 55.4391 59.582 56.0225 59.1582C56.6104 58.7298 57.4352 58.5156 58.4971 58.5156H59.7275V57.9346C59.7275 57.4925 59.5954 57.1416 59.3311 56.8818C59.0667 56.6175 58.6771 56.4854 58.1621 56.4854C57.7109 56.4854 57.3327 56.5993 57.0273 56.8271C56.722 57.055 56.5693 57.3307 56.5693 57.6543H55.2979C55.2979 57.2852 55.4277 56.9297 55.6875 56.5879C55.9518 56.2415 56.3073 55.9681 56.7539 55.7676C57.2051 55.5671 57.6995 55.4668 58.2373 55.4668C59.0895 55.4668 59.7572 55.681 60.2402 56.1094C60.7233 56.5332 60.974 57.1188 60.9922 57.8662V61.2705C60.9922 61.9495 61.0788 62.4896 61.252 62.8906V63H59.9258ZM57.8271 62.0361C58.2236 62.0361 58.5996 61.9336 58.9551 61.7285C59.3105 61.5234 59.568 61.2568 59.7275 60.9287V59.4111H58.7363C57.1868 59.4111 56.4121 59.8646 56.4121 60.7715C56.4121 61.168 56.5443 61.4779 56.8086 61.7012C57.0729 61.9245 57.4124 62.0361 57.8271 62.0361ZM63.8486 63H62.584V52.5H63.8486V63ZM66.7529 63H65.4883V52.5H66.7529V63ZM77.5039 59.3838C77.5039 60.5094 77.2464 61.4163 76.7314 62.1045C76.2165 62.7926 75.5192 63.1367 74.6396 63.1367C73.7419 63.1367 73.0355 62.8519 72.5205 62.2822V65.8438H71.2559V55.6035H72.4111L72.4727 56.4238C72.9876 55.7858 73.7031 55.4668 74.6191 55.4668C75.5078 55.4668 76.2096 55.8018 76.7246 56.4717C77.2441 57.1416 77.5039 58.0736 77.5039 59.2676V59.3838ZM76.2393 59.2402C76.2393 58.4062 76.0615 57.7477 75.7061 57.2646C75.3506 56.7816 74.863 56.54 74.2432 56.54C73.4775 56.54 72.9033 56.8796 72.5205 57.5586V61.0928C72.8988 61.7673 73.4775 62.1045 74.2568 62.1045C74.863 62.1045 75.3438 61.8652 75.6992 61.3867C76.0592 60.9036 76.2393 60.1882 76.2393 59.2402ZM82.1924 56.7383C82.001 56.7064 81.7936 56.6904 81.5703 56.6904C80.7409 56.6904 80.1781 57.0436 79.8818 57.75V63H78.6172V55.6035H79.8477L79.8682 56.458C80.2829 55.7972 80.8708 55.4668 81.6318 55.4668C81.8779 55.4668 82.0648 55.4987 82.1924 55.5625V56.7383ZM82.3896 59.2334C82.3896 58.5088 82.5309 57.8571 82.8135 57.2783C83.1006 56.6995 83.4971 56.2529 84.0029 55.9385C84.5133 55.624 85.0944 55.4668 85.7461 55.4668C86.7533 55.4668 87.5667 55.8154 88.1865 56.5127C88.8109 57.21 89.123 58.1374 89.123 59.2949V59.3838C89.123 60.1038 88.984 60.751 88.7061 61.3252C88.4326 61.8949 88.0384 62.3392 87.5234 62.6582C87.013 62.9772 86.4251 63.1367 85.7598 63.1367C84.7572 63.1367 83.9437 62.7881 83.3193 62.0908C82.6995 61.3936 82.3896 60.4707 82.3896 59.3223V59.2334ZM83.6611 59.3838C83.6611 60.2041 83.8503 60.8626 84.2285 61.3594C84.6113 61.8561 85.1217 62.1045 85.7598 62.1045C86.4023 62.1045 86.9128 61.8538 87.291 61.3525C87.6693 60.8467 87.8584 60.1403 87.8584 59.2334C87.8584 58.4222 87.6647 57.766 87.2773 57.2646C86.8945 56.7588 86.3841 56.5059 85.7461 56.5059C85.1217 56.5059 84.6182 56.7542 84.2354 57.251C83.8525 57.7477 83.6611 58.4587 83.6611 59.3838ZM91.5146 55.6035V63.8545C91.5146 65.2764 90.8698 65.9873 89.5801 65.9873C89.3021 65.9873 89.0446 65.9463 88.8076 65.8643V64.8525C88.9535 64.889 89.1449 64.9072 89.3818 64.9072C89.6644 64.9072 89.8786 64.8298 90.0244 64.6748C90.1748 64.5244 90.25 64.2601 90.25 63.8818V55.6035H91.5146ZM90.1201 53.6416C90.1201 53.4411 90.1816 53.2702 90.3047 53.1289C90.4323 52.9831 90.6169 52.9102 90.8584 52.9102C91.1045 52.9102 91.2913 52.9808 91.4189 53.1221C91.5465 53.2633 91.6104 53.4365 91.6104 53.6416C91.6104 53.8467 91.5465 54.0176 91.4189 54.1543C91.2913 54.291 91.1045 54.3594 90.8584 54.3594C90.6123 54.3594 90.4277 54.291 90.3047 54.1543C90.1816 54.0176 90.1201 53.8467 90.1201 53.6416ZM96.1279 63.1367C95.1253 63.1367 94.3096 62.8086 93.6807 62.1523C93.0518 61.4915 92.7373 60.6097 92.7373 59.5068V59.2744C92.7373 58.5407 92.8763 57.8867 93.1543 57.3125C93.4368 56.7337 93.8288 56.2826 94.3301 55.959C94.8359 55.6309 95.3828 55.4668 95.9707 55.4668C96.9323 55.4668 97.6797 55.7835 98.2129 56.417C98.7461 57.0505 99.0127 57.9574 99.0127 59.1377V59.6641H94.002C94.0202 60.3932 94.2321 60.9834 94.6377 61.4346C95.0479 61.8812 95.5674 62.1045 96.1963 62.1045C96.6429 62.1045 97.0212 62.0133 97.3311 61.8311C97.641 61.6488 97.9121 61.4072 98.1445 61.1064L98.917 61.708C98.2972 62.6605 97.3675 63.1367 96.1279 63.1367ZM95.9707 56.5059C95.4603 56.5059 95.0319 56.6927 94.6855 57.0664C94.3392 57.4355 94.125 57.9551 94.043 58.625H97.748V58.5293C97.7116 57.8867 97.5384 57.39 97.2285 57.0391C96.9186 56.6836 96.4993 56.5059 95.9707 56.5059ZM102.949 62.1045C103.4 62.1045 103.795 61.9678 104.132 61.6943C104.469 61.4209 104.656 61.0791 104.692 60.6689H105.889C105.866 61.0928 105.72 61.4961 105.451 61.8789C105.182 62.2617 104.822 62.5671 104.371 62.7949C103.924 63.0228 103.451 63.1367 102.949 63.1367C101.942 63.1367 101.14 62.8018 100.543 62.1318C99.9505 61.4574 99.6543 60.5368 99.6543 59.3701V59.1582C99.6543 58.4382 99.7865 57.7979 100.051 57.2373C100.315 56.6768 100.693 56.2415 101.186 55.9316C101.682 55.6217 102.268 55.4668 102.942 55.4668C103.772 55.4668 104.46 55.7152 105.007 56.2119C105.558 56.7087 105.852 57.3535 105.889 58.1465H104.692C104.656 57.668 104.474 57.276 104.146 56.9707C103.822 56.6608 103.421 56.5059 102.942 56.5059C102.3 56.5059 101.801 56.7383 101.445 57.2031C101.094 57.6634 100.919 58.3311 100.919 59.2061V59.4453C100.919 60.2975 101.094 60.9538 101.445 61.4141C101.796 61.8743 102.298 62.1045 102.949 62.1045ZM108.526 53.8125V55.6035H109.907V56.5811H108.526V61.168C108.526 61.4642 108.588 61.6875 108.711 61.8379C108.834 61.9837 109.044 62.0566 109.34 62.0566C109.486 62.0566 109.686 62.0293 109.941 61.9746V63C109.609 63.0911 109.285 63.1367 108.971 63.1367C108.406 63.1367 107.979 62.9658 107.692 62.624C107.405 62.2822 107.262 61.7969 107.262 61.168V56.5811H105.915V55.6035H107.262V53.8125H108.526ZM115.197 61.0381C115.197 60.6963 115.067 60.432 114.808 60.2451C114.552 60.0537 114.104 59.8896 113.461 59.7529C112.823 59.6162 112.315 59.4521 111.937 59.2607C111.563 59.0693 111.285 58.8415 111.103 58.5771C110.925 58.3128 110.836 57.9984 110.836 57.6338C110.836 57.0277 111.091 56.515 111.602 56.0957C112.117 55.6764 112.773 55.4668 113.57 55.4668C114.409 55.4668 115.088 55.6833 115.607 56.1162C116.132 56.5492 116.394 57.1029 116.394 57.7773H115.122C115.122 57.431 114.974 57.1325 114.678 56.8818C114.386 56.6312 114.017 56.5059 113.57 56.5059C113.11 56.5059 112.75 56.6061 112.49 56.8066C112.23 57.0072 112.101 57.2692 112.101 57.5928C112.101 57.8981 112.221 58.1283 112.463 58.2832C112.704 58.4382 113.14 58.5863 113.769 58.7275C114.402 58.8688 114.915 59.0374 115.307 59.2334C115.699 59.4294 115.988 59.6663 116.175 59.9443C116.366 60.2178 116.462 60.5527 116.462 60.9492C116.462 61.61 116.198 62.141 115.669 62.542C115.14 62.9385 114.454 63.1367 113.611 63.1367C113.019 63.1367 112.495 63.0319 112.039 62.8223C111.583 62.6126 111.226 62.321 110.966 61.9473C110.711 61.569 110.583 61.1611 110.583 60.7236H111.848C111.87 61.1475 112.039 61.4847 112.354 61.7354C112.673 61.9814 113.092 62.1045 113.611 62.1045C114.09 62.1045 114.473 62.0088 114.76 61.8174C115.051 61.6214 115.197 61.3617 115.197 61.0381Z" fill="#181819" fill-opacity="0.42"/>
<rect x="0.5" y="0.5" width="350" height="321" rx="8.5" stroke="#E6E7E9"/>
<path d="M279.353 199C283.024 199 286.021 196.021 285.801 192.357C285.063 180.052 282.28 167.939 277.551 156.522C271.972 143.055 263.796 130.818 253.489 120.511C243.182 110.204 230.945 102.028 217.478 96.4494C204.011 90.8711 189.577 88 175 88C160.423 88 145.989 90.8711 132.522 96.4494C119.055 102.028 106.818 110.204 96.5111 120.511C86.2038 130.818 78.0276 143.055 72.4494 156.522C67.7202 167.939 64.9368 180.052 64.199 192.357C63.9793 196.021 66.9761 199 70.6473 199V199C74.3185 199 77.2711 196.02 77.5207 192.358C78.2401 181.8 80.6711 171.414 84.732 161.61C89.6422 149.756 96.8391 138.985 105.912 129.912C114.985 120.839 125.756 113.642 137.61 108.732C149.464 103.822 162.169 101.295 175 101.295C187.831 101.295 200.536 103.822 212.39 108.732C224.244 113.642 235.015 120.839 244.088 129.912C253.161 138.985 260.358 149.756 265.268 161.61C269.329 171.414 271.76 181.8 272.479 192.358C272.729 196.02 275.681 199 279.353 199V199Z" fill="#EAEAFD"/>
<path d="M276.869 176.37C280.453 175.573 282.733 172.015 281.723 168.485C274.854 144.459 260.052 123.382 239.631 108.757C217.403 92.8375 190.082 85.6817 162.904 88.661C135.727 91.6403 110.605 104.545 92.3538 124.901C75.5859 143.604 65.7012 167.387 64.2004 192.33C63.9799 195.995 66.9761 198.975 70.6473 198.976V198.976C74.3185 198.977 77.2718 195.998 77.5221 192.335C79.0029 170.669 87.6709 150.04 102.252 133.776C118.318 115.858 140.431 104.499 164.353 101.876C188.276 99.254 212.324 105.553 231.89 119.565C249.648 132.284 262.58 150.545 268.719 171.376C269.757 174.897 273.285 177.166 276.869 176.37V176.37Z" fill="#4A4DE6"/>
<path d="M262 199C262 187.575 259.75 176.262 255.378 165.707C251.005 155.151 244.597 145.56 236.518 137.482C228.44 129.403 218.849 122.995 208.293 118.622C197.738 114.25 186.425 112 175 112C163.575 112 152.262 114.25 141.707 118.622C131.151 122.995 121.56 129.403 113.482 137.482C105.403 145.56 98.9946 155.151 94.6225 165.707C90.2503 176.262 88 187.575 88 199" stroke="#4A4DE6" stroke-dasharray="2 10"/>
<path d="M145.027 168.344C145.027 169.319 144.777 170.189 144.275 170.955C143.774 171.712 143.09 172.309 142.225 172.746C143.264 173.229 144.061 173.89 144.617 174.729C145.182 175.567 145.465 176.515 145.465 177.572C145.465 179.322 144.872 180.712 143.688 181.742C142.503 182.763 140.926 183.273 138.957 183.273C136.979 183.273 135.393 182.758 134.199 181.729C133.014 180.699 132.422 179.313 132.422 177.572C132.422 176.506 132.704 175.549 133.27 174.701C133.835 173.854 134.628 173.202 135.648 172.746C134.792 172.309 134.113 171.712 133.611 170.955C133.119 170.189 132.873 169.319 132.873 168.344C132.873 166.648 133.42 165.304 134.514 164.311C135.607 163.317 137.084 162.82 138.943 162.82C140.812 162.82 142.293 163.317 143.387 164.311C144.48 165.304 145.027 166.648 145.027 168.344ZM142.143 177.408C142.143 176.424 141.846 175.631 141.254 175.029C140.671 174.419 139.896 174.113 138.93 174.113C137.964 174.113 137.189 174.414 136.605 175.016C136.031 175.617 135.744 176.415 135.744 177.408C135.744 178.383 136.027 179.163 136.592 179.746C137.166 180.329 137.954 180.621 138.957 180.621C139.96 180.621 140.739 180.339 141.295 179.773C141.86 179.208 142.143 178.42 142.143 177.408ZM141.719 168.467C141.719 167.601 141.468 166.89 140.967 166.334C140.465 165.769 139.791 165.486 138.943 165.486C138.096 165.486 137.426 165.755 136.934 166.293C136.441 166.822 136.195 167.546 136.195 168.467C136.195 169.378 136.441 170.103 136.934 170.641C137.435 171.178 138.109 171.447 138.957 171.447C139.805 171.447 140.475 171.178 140.967 170.641C141.468 170.103 141.719 169.378 141.719 168.467ZM157.124 174.674C156.012 175.85 154.713 176.438 153.228 176.438C151.478 176.438 150.083 175.827 149.044 174.605C148.005 173.375 147.486 171.762 147.486 169.766C147.486 168.453 147.75 167.264 148.279 166.197C148.807 165.131 149.559 164.301 150.534 163.709C151.51 163.117 152.64 162.82 153.925 162.82C155.93 162.82 157.521 163.568 158.696 165.062C159.872 166.557 160.46 168.558 160.46 171.064V171.994C160.46 175.585 159.649 178.324 158.027 180.211C156.404 182.098 153.984 183.055 150.767 183.082H150.37V180.334H150.849C152.808 180.307 154.312 179.837 155.361 178.926C156.409 178.005 156.997 176.588 157.124 174.674ZM153.925 173.84C154.59 173.84 155.215 173.648 155.798 173.266C156.381 172.883 156.833 172.354 157.152 171.68V170.381C157.152 168.913 156.851 167.733 156.249 166.84C155.648 165.947 154.868 165.5 153.911 165.5C152.954 165.5 152.189 165.896 151.614 166.689C151.049 167.473 150.767 168.467 150.767 169.67C150.767 170.919 151.054 171.926 151.628 172.691C152.202 173.457 152.968 173.84 153.925 173.84ZM165.202 179.5C165.821 179.5 166.3 179.678 166.637 180.033C166.974 180.38 167.143 180.817 167.143 181.346C167.143 181.865 166.974 182.298 166.637 182.645C166.3 182.982 165.821 183.15 165.202 183.15C164.609 183.15 164.14 182.982 163.793 182.645C163.447 182.307 163.274 181.874 163.274 181.346C163.274 180.817 163.442 180.38 163.78 180.033C164.117 179.678 164.591 179.5 165.202 179.5ZM182.576 168.344C182.576 169.319 182.325 170.189 181.824 170.955C181.323 171.712 180.639 172.309 179.773 172.746C180.812 173.229 181.61 173.89 182.166 174.729C182.731 175.567 183.013 176.515 183.013 177.572C183.013 179.322 182.421 180.712 181.236 181.742C180.051 182.763 178.474 183.273 176.505 183.273C174.528 183.273 172.942 182.758 171.748 181.729C170.563 180.699 169.97 179.313 169.97 177.572C169.97 176.506 170.253 175.549 170.818 174.701C171.383 173.854 172.176 173.202 173.197 172.746C172.34 172.309 171.661 171.712 171.16 170.955C170.668 170.189 170.421 169.319 170.421 168.344C170.421 166.648 170.968 165.304 172.062 164.311C173.156 163.317 174.632 162.82 176.492 162.82C178.36 162.82 179.841 163.317 180.935 164.311C182.029 165.304 182.576 166.648 182.576 168.344ZM179.691 177.408C179.691 176.424 179.395 175.631 178.802 175.029C178.219 174.419 177.444 174.113 176.478 174.113C175.512 174.113 174.737 174.414 174.154 175.016C173.58 175.617 173.293 176.415 173.293 177.408C173.293 178.383 173.575 179.163 174.14 179.746C174.714 180.329 175.503 180.621 176.505 180.621C177.508 180.621 178.287 180.339 178.843 179.773C179.408 179.208 179.691 178.42 179.691 177.408ZM179.267 168.467C179.267 167.601 179.017 166.89 178.515 166.334C178.014 165.769 177.339 165.486 176.492 165.486C175.644 165.486 174.974 165.755 174.482 166.293C173.99 166.822 173.744 167.546 173.744 168.467C173.744 169.378 173.99 170.103 174.482 170.641C174.983 171.178 175.658 171.447 176.505 171.447C177.353 171.447 178.023 171.178 178.515 170.641C179.017 170.103 179.267 169.378 179.267 168.467ZM198.501 164.939L190.544 183H187.057L195.001 165.76H184.706V163.094H198.501V164.939ZM200.33 166.922C200.33 165.719 200.717 164.734 201.492 163.969C202.267 163.194 203.283 162.807 204.541 162.807C205.817 162.807 206.838 163.194 207.604 163.969C208.378 164.734 208.766 165.742 208.766 166.99V167.975C208.766 169.169 208.378 170.148 207.604 170.914C206.838 171.68 205.826 172.062 204.568 172.062C203.338 172.062 202.322 171.689 201.52 170.941C200.727 170.185 200.33 169.169 200.33 167.893V166.922ZM202.654 167.975C202.654 168.604 202.827 169.114 203.174 169.506C203.529 169.889 203.994 170.08 204.568 170.08C205.133 170.08 205.589 169.889 205.936 169.506C206.282 169.114 206.455 168.585 206.455 167.92V166.922C206.455 166.293 206.277 165.783 205.922 165.391C205.576 164.999 205.115 164.803 204.541 164.803C203.967 164.803 203.507 165.003 203.16 165.404C202.823 165.796 202.654 166.316 202.654 166.963V167.975ZM209.9 178.119C209.9 176.898 210.297 175.909 211.09 175.152C211.883 174.396 212.895 174.018 214.125 174.018C215.365 174.018 216.376 174.396 217.16 175.152C217.953 175.909 218.35 176.93 218.35 178.215V179.186C218.35 180.37 217.967 181.35 217.201 182.125C216.445 182.891 215.428 183.273 214.152 183.273C212.876 183.273 211.846 182.895 211.062 182.139C210.288 181.373 209.9 180.366 209.9 179.117V178.119ZM212.225 179.186C212.225 179.805 212.402 180.316 212.758 180.717C213.122 181.109 213.587 181.305 214.152 181.305C214.736 181.305 215.191 181.118 215.52 180.744C215.857 180.361 216.025 179.828 216.025 179.145V178.119C216.025 177.481 215.848 176.971 215.492 176.588C215.137 176.205 214.681 176.014 214.125 176.014C213.56 176.014 213.1 176.205 212.744 176.588C212.398 176.971 212.225 177.499 212.225 178.174V179.186ZM205.252 181.51L203.543 180.525L213.264 164.967L214.973 165.951L205.252 181.51Z" fill="#4A4DE6"/>
<path d="M140.99 205V196.469H143.779C144.705 196.469 145.4 196.66 145.865 197.043C146.334 197.426 146.568 197.992 146.568 198.742C146.568 199.141 146.455 199.494 146.229 199.803C146.002 200.107 145.693 200.344 145.303 200.512C145.764 200.641 146.127 200.887 146.393 201.25C146.662 201.609 146.797 202.039 146.797 202.539C146.797 203.305 146.549 203.906 146.053 204.344C145.557 204.781 144.855 205 143.949 205H140.99ZM142.115 201.01V204.08H143.973C144.496 204.08 144.908 203.945 145.209 203.676C145.514 203.402 145.666 203.027 145.666 202.551C145.666 201.523 145.107 201.01 143.99 201.01H142.115ZM142.115 200.107H143.814C144.307 200.107 144.699 199.984 144.992 199.738C145.289 199.492 145.438 199.158 145.438 198.736C145.438 198.268 145.301 197.928 145.027 197.717C144.754 197.502 144.338 197.395 143.779 197.395H142.115V200.107ZM151.711 205C151.648 204.875 151.598 204.652 151.559 204.332C151.055 204.855 150.453 205.117 149.754 205.117C149.129 205.117 148.615 204.941 148.213 204.59C147.814 204.234 147.615 203.785 147.615 203.242C147.615 202.582 147.865 202.07 148.365 201.707C148.869 201.34 149.576 201.156 150.486 201.156H151.541V200.658C151.541 200.279 151.428 199.979 151.201 199.756C150.975 199.529 150.641 199.416 150.199 199.416C149.812 199.416 149.488 199.514 149.227 199.709C148.965 199.904 148.834 200.141 148.834 200.418H147.744C147.744 200.102 147.855 199.797 148.078 199.504C148.305 199.207 148.609 198.973 148.992 198.801C149.379 198.629 149.803 198.543 150.264 198.543C150.994 198.543 151.566 198.727 151.98 199.094C152.395 199.457 152.609 199.959 152.625 200.6V203.518C152.625 204.1 152.699 204.562 152.848 204.906V205H151.711ZM149.912 204.174C150.252 204.174 150.574 204.086 150.879 203.91C151.184 203.734 151.404 203.506 151.541 203.225V201.924H150.691C149.363 201.924 148.699 202.312 148.699 203.09C148.699 203.43 148.812 203.695 149.039 203.887C149.266 204.078 149.557 204.174 149.912 204.174ZM157.516 203.318C157.516 203.025 157.404 202.799 157.182 202.639C156.963 202.475 156.578 202.334 156.027 202.217C155.48 202.1 155.045 201.959 154.721 201.795C154.4 201.631 154.162 201.436 154.006 201.209C153.854 200.982 153.777 200.713 153.777 200.4C153.777 199.881 153.996 199.441 154.434 199.082C154.875 198.723 155.438 198.543 156.121 198.543C156.84 198.543 157.422 198.729 157.867 199.1C158.316 199.471 158.541 199.945 158.541 200.523H157.451C157.451 200.227 157.324 199.971 157.07 199.756C156.82 199.541 156.504 199.434 156.121 199.434C155.727 199.434 155.418 199.52 155.195 199.691C154.973 199.863 154.861 200.088 154.861 200.365C154.861 200.627 154.965 200.824 155.172 200.957C155.379 201.09 155.752 201.217 156.291 201.338C156.834 201.459 157.273 201.604 157.609 201.771C157.945 201.939 158.193 202.143 158.354 202.381C158.518 202.615 158.6 202.902 158.6 203.242C158.6 203.809 158.373 204.264 157.92 204.607C157.467 204.947 156.879 205.117 156.156 205.117C155.648 205.117 155.199 205.027 154.809 204.848C154.418 204.668 154.111 204.418 153.889 204.098C153.67 203.773 153.561 203.424 153.561 203.049H154.645C154.664 203.412 154.809 203.701 155.078 203.916C155.352 204.127 155.711 204.232 156.156 204.232C156.566 204.232 156.895 204.15 157.141 203.986C157.391 203.818 157.516 203.596 157.516 203.318ZM162.143 205.117C161.283 205.117 160.584 204.836 160.045 204.273C159.506 203.707 159.236 202.951 159.236 202.006V201.807C159.236 201.178 159.355 200.617 159.594 200.125C159.836 199.629 160.172 199.242 160.602 198.965C161.035 198.684 161.504 198.543 162.008 198.543C162.832 198.543 163.473 198.814 163.93 199.357C164.387 199.9 164.615 200.678 164.615 201.689V202.141H160.32C160.336 202.766 160.518 203.271 160.865 203.658C161.217 204.041 161.662 204.232 162.201 204.232C162.584 204.232 162.908 204.154 163.174 203.998C163.439 203.842 163.672 203.635 163.871 203.377L164.533 203.893C164.002 204.709 163.205 205.117 162.143 205.117ZM162.008 199.434C161.57 199.434 161.203 199.594 160.906 199.914C160.609 200.23 160.426 200.676 160.355 201.25H163.531V201.168C163.5 200.617 163.352 200.191 163.086 199.891C162.82 199.586 162.461 199.434 162.008 199.434ZM165.111 201.777C165.111 200.805 165.342 200.023 165.803 199.434C166.264 198.84 166.867 198.543 167.613 198.543C168.355 198.543 168.943 198.797 169.377 199.305V196H170.461V205H169.465L169.412 204.32C168.979 204.852 168.375 205.117 167.602 205.117C166.867 205.117 166.268 204.816 165.803 204.215C165.342 203.613 165.111 202.828 165.111 201.859V201.777ZM166.195 201.9C166.195 202.619 166.344 203.182 166.641 203.588C166.938 203.994 167.348 204.197 167.871 204.197C168.559 204.197 169.061 203.889 169.377 203.271V200.359C169.053 199.762 168.555 199.463 167.883 199.463C167.352 199.463 166.938 199.668 166.641 200.078C166.344 200.488 166.195 201.096 166.195 201.9ZM173.838 201.771C173.838 201.15 173.959 200.592 174.201 200.096C174.447 199.6 174.787 199.217 175.221 198.947C175.658 198.678 176.156 198.543 176.715 198.543C177.578 198.543 178.275 198.842 178.807 199.439C179.342 200.037 179.609 200.832 179.609 201.824V201.9C179.609 202.518 179.49 203.072 179.252 203.564C179.018 204.053 178.68 204.434 178.238 204.707C177.801 204.98 177.297 205.117 176.727 205.117C175.867 205.117 175.17 204.818 174.635 204.221C174.104 203.623 173.838 202.832 173.838 201.848V201.771ZM174.928 201.9C174.928 202.604 175.09 203.168 175.414 203.594C175.742 204.02 176.18 204.232 176.727 204.232C177.277 204.232 177.715 204.018 178.039 203.588C178.363 203.154 178.525 202.549 178.525 201.771C178.525 201.076 178.359 200.514 178.027 200.084C177.699 199.65 177.262 199.434 176.715 199.434C176.18 199.434 175.748 199.646 175.42 200.072C175.092 200.498 174.928 201.107 174.928 201.9ZM181.494 198.66L181.529 199.457C182.014 198.848 182.646 198.543 183.428 198.543C184.768 198.543 185.443 199.299 185.455 200.811V205H184.371V200.805C184.367 200.348 184.262 200.01 184.055 199.791C183.852 199.572 183.533 199.463 183.1 199.463C182.748 199.463 182.439 199.557 182.174 199.744C181.908 199.932 181.701 200.178 181.553 200.482V205H180.469V198.66H181.494ZM190.244 205H189.16V196H190.244V205ZM192.662 205H191.578V198.66H192.662V205ZM191.49 196.979C191.49 196.803 191.543 196.654 191.648 196.533C191.758 196.412 191.918 196.352 192.129 196.352C192.34 196.352 192.5 196.412 192.609 196.533C192.719 196.654 192.773 196.803 192.773 196.979C192.773 197.154 192.719 197.301 192.609 197.418C192.5 197.535 192.34 197.594 192.129 197.594C191.918 197.594 191.758 197.535 191.648 197.418C191.543 197.301 191.49 197.154 191.49 196.979ZM195.672 202.064L194.992 202.773V205H193.908V196H194.992V201.443L195.572 200.746L197.547 198.66H198.865L196.398 201.309L199.152 205H197.881L195.672 202.064ZM201.998 205.117C201.139 205.117 200.439 204.836 199.9 204.273C199.361 203.707 199.092 202.951 199.092 202.006V201.807C199.092 201.178 199.211 200.617 199.449 200.125C199.691 199.629 200.027 199.242 200.457 198.965C200.891 198.684 201.359 198.543 201.863 198.543C202.688 198.543 203.328 198.814 203.785 199.357C204.242 199.9 204.471 200.678 204.471 201.689V202.141H200.176C200.191 202.766 200.373 203.271 200.721 203.658C201.072 204.041 201.518 204.232 202.057 204.232C202.439 204.232 202.764 204.154 203.029 203.998C203.295 203.842 203.527 203.635 203.727 203.377L204.389 203.893C203.857 204.709 203.061 205.117 201.998 205.117ZM201.863 199.434C201.426 199.434 201.059 199.594 200.762 199.914C200.465 200.23 200.281 200.676 200.211 201.25H203.387V201.168C203.355 200.617 203.207 200.191 202.941 199.891C202.676 199.586 202.316 199.434 201.863 199.434ZM208.922 203.318C208.922 203.025 208.811 202.799 208.588 202.639C208.369 202.475 207.984 202.334 207.434 202.217C206.887 202.1 206.451 201.959 206.127 201.795C205.807 201.631 205.568 201.436 205.412 201.209C205.26 200.982 205.184 200.713 205.184 200.4C205.184 199.881 205.402 199.441 205.84 199.082C206.281 198.723 206.844 198.543 207.527 198.543C208.246 198.543 208.828 198.729 209.273 199.1C209.723 199.471 209.947 199.945 209.947 200.523H208.857C208.857 200.227 208.73 199.971 208.477 199.756C208.227 199.541 207.91 199.434 207.527 199.434C207.133 199.434 206.824 199.52 206.602 199.691C206.379 199.863 206.268 200.088 206.268 200.365C206.268 200.627 206.371 200.824 206.578 200.957C206.785 201.09 207.158 201.217 207.697 201.338C208.24 201.459 208.68 201.604 209.016 201.771C209.352 201.939 209.6 202.143 209.76 202.381C209.924 202.615 210.006 202.902 210.006 203.242C210.006 203.809 209.779 204.264 209.326 204.607C208.873 204.947 208.285 205.117 207.562 205.117C207.055 205.117 206.605 205.027 206.215 204.848C205.824 204.668 205.518 204.418 205.295 204.098C205.076 203.773 204.967 203.424 204.967 203.049H206.051C206.07 203.412 206.215 203.701 206.484 203.916C206.758 204.127 207.117 204.232 207.562 204.232C207.973 204.232 208.301 204.15 208.547 203.986C208.797 203.818 208.922 203.596 208.922 203.318Z" fill="#181819" fill-opacity="0.42"/>
<path d="M69.0586 217.361C69.0586 218.631 68.8418 219.574 68.4082 220.191C67.9746 220.809 67.2969 221.117 66.375 221.117C65.4648 221.117 64.791 220.816 64.3535 220.215C63.916 219.609 63.6895 218.707 63.6738 217.508V216.061C63.6738 214.807 63.8906 213.875 64.3242 213.266C64.7578 212.656 65.4375 212.352 66.3633 212.352C67.2812 212.352 67.957 212.646 68.3906 213.236C68.8242 213.822 69.0469 214.729 69.0586 215.955V217.361ZM67.9746 215.879C67.9746 214.961 67.8457 214.293 67.5879 213.875C67.3301 213.453 66.9219 213.242 66.3633 213.242C65.8086 213.242 65.4043 213.451 65.1504 213.869C64.8965 214.287 64.7656 214.93 64.7578 215.797V217.531C64.7578 218.453 64.8906 219.135 65.1562 219.576C65.4258 220.014 65.832 220.232 66.375 220.232C66.9102 220.232 67.3066 220.025 67.5645 219.611C67.8262 219.197 67.9629 218.545 67.9746 217.654V215.879ZM69.8535 214.109C69.8535 213.598 70.0156 213.176 70.3398 212.844C70.668 212.512 71.0879 212.346 71.5996 212.346C72.1191 212.346 72.5391 212.514 72.8594 212.85C73.1836 213.182 73.3457 213.613 73.3457 214.145V214.561C73.3457 215.076 73.1816 215.498 72.8535 215.826C72.5293 216.15 72.1152 216.312 71.6113 216.312C71.1035 216.312 70.6836 216.15 70.3516 215.826C70.0195 215.498 69.8535 215.062 69.8535 214.52V214.109ZM70.6621 214.561C70.6621 214.865 70.748 215.117 70.9199 215.316C71.0918 215.512 71.3223 215.609 71.6113 215.609C71.8887 215.609 72.1113 215.514 72.2793 215.322C72.4512 215.131 72.5371 214.869 72.5371 214.537V214.109C72.5371 213.805 72.4531 213.553 72.2852 213.354C72.1172 213.154 71.8887 213.055 71.5996 213.055C71.3105 213.055 71.082 213.154 70.9141 213.354C70.7461 213.553 70.6621 213.812 70.6621 214.133V214.561ZM74.0078 218.908C74.0078 218.396 74.1699 217.977 74.4941 217.648C74.8223 217.316 75.2422 217.15 75.7539 217.15C76.2656 217.15 76.6855 217.314 77.0137 217.643C77.3418 217.971 77.5059 218.406 77.5059 218.949V219.365C77.5059 219.877 77.3418 220.299 77.0137 220.631C76.6895 220.959 76.2734 221.123 75.7656 221.123C75.2578 221.123 74.8379 220.961 74.5059 220.637C74.1738 220.309 74.0078 219.873 74.0078 219.33V218.908ZM74.8164 219.365C74.8164 219.674 74.9023 219.928 75.0742 220.127C75.2461 220.322 75.4766 220.42 75.7656 220.42C76.0469 220.42 76.2715 220.324 76.4395 220.133C76.6074 219.938 76.6914 219.674 76.6914 219.342V218.908C76.6914 218.6 76.6055 218.348 76.4336 218.152C76.2656 217.957 76.0391 217.859 75.7539 217.859C75.4766 217.859 75.25 217.957 75.0742 218.152C74.9023 218.344 74.8164 218.604 74.8164 218.932V219.365ZM71.8574 220.355L71.2422 219.969L75.4082 213.301L76.0234 213.688L71.8574 220.355Z" fill="#181819" fill-opacity="0.42"/>
<path d="M270.271 221H269.182V213.775L266.996 214.578V213.594L270.102 212.428H270.271V221ZM278.297 217.361C278.297 218.631 278.08 219.574 277.646 220.191C277.213 220.809 276.535 221.117 275.613 221.117C274.703 221.117 274.029 220.816 273.592 220.215C273.154 219.609 272.928 218.707 272.912 217.508V216.061C272.912 214.807 273.129 213.875 273.562 213.266C273.996 212.656 274.676 212.352 275.602 212.352C276.52 212.352 277.195 212.646 277.629 213.236C278.062 213.822 278.285 214.729 278.297 215.955V217.361ZM277.213 215.879C277.213 214.961 277.084 214.293 276.826 213.875C276.568 213.453 276.16 213.242 275.602 213.242C275.047 213.242 274.643 213.451 274.389 213.869C274.135 214.287 274.004 214.93 273.996 215.797V217.531C273.996 218.453 274.129 219.135 274.395 219.576C274.664 220.014 275.07 220.232 275.613 220.232C276.148 220.232 276.545 220.025 276.803 219.611C277.064 219.197 277.201 218.545 277.213 217.654V215.879ZM284.535 217.361C284.535 218.631 284.318 219.574 283.885 220.191C283.451 220.809 282.773 221.117 281.852 221.117C280.941 221.117 280.268 220.816 279.83 220.215C279.393 219.609 279.166 218.707 279.15 217.508V216.061C279.15 214.807 279.367 213.875 279.801 213.266C280.234 212.656 280.914 212.352 281.84 212.352C282.758 212.352 283.434 212.646 283.867 213.236C284.301 213.822 284.523 214.729 284.535 215.955V217.361ZM283.451 215.879C283.451 214.961 283.322 214.293 283.064 213.875C282.807 213.453 282.398 213.242 281.84 213.242C281.285 213.242 280.881 213.451 280.627 213.869C280.373 214.287 280.242 214.93 280.234 215.797V217.531C280.234 218.453 280.367 219.135 280.633 219.576C280.902 220.014 281.309 220.232 281.852 220.232C282.387 220.232 282.783 220.025 283.041 219.611C283.303 219.197 283.439 218.545 283.451 217.654V215.879ZM285.33 214.109C285.33 213.598 285.492 213.176 285.816 212.844C286.145 212.512 286.564 212.346 287.076 212.346C287.596 212.346 288.016 212.514 288.336 212.85C288.66 213.182 288.822 213.613 288.822 214.145V214.561C288.822 215.076 288.658 215.498 288.33 215.826C288.006 216.15 287.592 216.312 287.088 216.312C286.58 216.312 286.16 216.15 285.828 215.826C285.496 215.498 285.33 215.062 285.33 214.52V214.109ZM286.139 214.561C286.139 214.865 286.225 215.117 286.396 215.316C286.568 215.512 286.799 215.609 287.088 215.609C287.365 215.609 287.588 215.514 287.756 215.322C287.928 215.131 288.014 214.869 288.014 214.537V214.109C288.014 213.805 287.93 213.553 287.762 213.354C287.594 213.154 287.365 213.055 287.076 213.055C286.787 213.055 286.559 213.154 286.391 213.354C286.223 213.553 286.139 213.812 286.139 214.133V214.561ZM289.484 218.908C289.484 218.396 289.646 217.977 289.971 217.648C290.299 217.316 290.719 217.15 291.23 217.15C291.742 217.15 292.162 217.314 292.49 217.643C292.818 217.971 292.982 218.406 292.982 218.949V219.365C292.982 219.877 292.818 220.299 292.49 220.631C292.166 220.959 291.75 221.123 291.242 221.123C290.734 221.123 290.314 220.961 289.982 220.637C289.65 220.309 289.484 219.873 289.484 219.33V218.908ZM290.293 219.365C290.293 219.674 290.379 219.928 290.551 220.127C290.723 220.322 290.953 220.42 291.242 220.42C291.523 220.42 291.748 220.324 291.916 220.133C292.084 219.938 292.168 219.674 292.168 219.342V218.908C292.168 218.6 292.082 218.348 291.91 218.152C291.742 217.957 291.516 217.859 291.23 217.859C290.953 217.859 290.727 217.957 290.551 218.152C290.379 218.344 290.293 218.604 290.293 218.932V219.365ZM287.334 220.355L286.719 219.969L290.885 213.301L291.5 213.688L287.334 220.355Z" fill="#181819" fill-opacity="0.42"/>
</svg>
