<svg width="80" height="32" viewBox="0 0 80 32" fill="none" xmlns="http://www.w3.org/2000/svg">
<path d="M30.4531 7V23.9102H36.6289C41.6914 23.9102 44.668 20.7695 44.668 15.4141C44.668 10.0586 41.6797 7 36.6289 7H30.4531ZM33.4766 9.55469H36.3125C39.6875 9.55469 41.5859 11.6406 41.5859 15.4258C41.5859 19.2812 39.7109 21.3555 36.3125 21.3555H33.4766V9.55469Z" fill="white"/>
<path d="M46.8594 23.9102H49.7773V7H46.8594V23.9102Z" fill="white"/>
<path d="M60.4883 20.1953C60.1719 21.2266 59.1406 21.9062 57.7812 21.9062C55.8711 21.9062 54.6523 20.5703 54.6523 18.5781V18.4023H63.3359V17.4531C63.3359 13.6797 61.1328 11.2305 57.6055 11.2305C54.0195 11.2305 51.7461 13.8203 51.7461 17.7461C51.7461 21.707 53.9961 24.1562 57.7227 24.1562C60.6641 24.1562 62.8438 22.5391 63.2188 20.1953H60.4883ZM57.6172 13.4922C59.293 13.4922 60.418 14.7227 60.4766 16.4805H54.6758C54.793 14.7461 55.9766 13.4922 57.6172 13.4922Z" fill="white"/>
<path d="M69.8633 19.457L72.4414 23.9102H75.6289L71.6797 17.6289L75.6758 11.4883H72.4766L70.0039 15.8477H69.9453L67.4375 11.4883H64.1562L68.1289 17.7109L64.1211 23.9102H67.2266L69.8047 19.457H69.8633Z" fill="white"/>
<path fill-rule="evenodd" clip-rule="evenodd" d="M12.0078 27.9998C18.6315 27.9954 23.9997 22.6246 23.9997 15.9999C23.9997 9.37519 18.6315 4.00431 12.0078 4C16.701 5.96122 19.9989 10.5954 19.9989 15.9999C19.9989 21.4043 16.701 26.0385 12.0078 27.9998Z" fill="white" fill-opacity="0.16"/>
<path d="M0 8.00024C0 5.7911 1.79086 4.00024 4 4.00024H7.00015C13.6275 4.00024 19 9.37277 19 16.0001C19 22.6275 13.6275 28 7.00015 28H4C1.79086 28 0 26.2091 0 24V8.00024Z" fill="white"/>
</svg>
