<?xml version="1.0" encoding="utf-8"?>
<!-- Generator: Adobe Illustrator 25.2.0, SVG Export Plug-In . SVG Version: 6.00 Build 0)  -->
<svg version="1.1" id="Layer_1" xmlns="http://www.w3.org/2000/svg" xmlns:xlink="http://www.w3.org/1999/xlink" x="0px" y="0px"
	 viewBox="0 0 229.6 133.1" style="enable-background:new 0 0 229.6 133.1;" xml:space="preserve">
<style type="text/css">
	.st0{fill:#EAEAFD;}
	.st1{fill:#4A4DE6;}
	.st2{fill:none;stroke:#4A4DE6;stroke-dasharray:2,10;}
	.st3{fill:#181819;fill-opacity:0.42;}
</style>
<path class="st0" d="M216,111c3.7,0,6.7-3,6.4-6.6c-0.7-12.3-3.5-24.4-8.2-35.8c-5.6-13.5-13.8-25.7-24.1-36s-22.5-18.5-36-24.1
	C140.7,2.9,126.2,0,111.7,0s-29,2.9-42.5,8.4c-13.5,5.6-25.7,13.8-36,24.1c-10.3,10.3-18.5,22.5-24.1,36
	c-4.7,11.4-7.5,23.5-8.3,35.8C0.6,108,3.6,111,7.3,111l0,0c3.7,0,6.6-3,6.9-6.6c0.7-10.6,3.2-20.9,7.2-30.7
	C26.3,61.8,33.5,51,42.6,41.9c9.1-9.1,19.8-16.3,31.7-21.2c11.9-4.9,24.6-7.4,37.4-7.4s25.5,2.5,37.4,7.4
	c11.9,4.9,22.6,12.1,31.7,21.2s16.3,19.8,21.2,31.7c4.1,9.8,6.5,20.2,7.2,30.7C209.4,108,212.3,111,216,111L216,111z"/>
<path class="st1" d="M213.5,88.4c3.6-0.8,5.9-4.4,4.9-7.9c-6.9-24-21.7-45.1-42.1-59.7C154.1,4.8,126.7-2.3,99.6,0.7
	C72.4,3.6,47.3,16.5,29,36.9C12.2,55.6,2.4,79.4,0.9,104.3C0.6,108,3.6,111,7.3,111l0,0c3.7,0,6.6-3,6.9-6.6
	C15.7,82.7,24.3,62,38.9,45.8C55,27.9,77.1,16.5,101,13.9c23.9-2.6,48,3.7,67.5,17.7c17.8,12.7,30.7,31,36.8,51.8
	C206.4,86.9,209.9,89.2,213.5,88.4L213.5,88.4z"/>
<path class="st2" d="M198.7,111c0-11.4-2.2-22.7-6.6-33.3c-4.4-10.6-10.8-20.1-18.9-28.2c-8.1-8.1-17.7-14.5-28.2-18.9
	c-10.6-4.4-21.9-6.6-33.3-6.6s-22.7,2.2-33.3,6.6C67.8,35,58.2,41.4,50.1,49.5c-8.1,8.1-14.5,17.7-18.9,28.2
	c-4.4,10.6-6.6,21.9-6.6,33.3"/>
<path class="st1" d="M81.7,80.3c0,1-0.2,1.8-0.8,2.6c-0.5,0.8-1.2,1.4-2,1.8c1,0.5,1.8,1.1,2.4,2c0.6,0.8,0.8,1.8,0.8,2.8
	c0,1.8-0.6,3.1-1.8,4.2c-1.2,1-2.8,1.5-4.7,1.5c-2,0-3.6-0.5-4.8-1.5c-1.2-1-1.8-2.4-1.8-4.2c0-1.1,0.3-2,0.8-2.9
	c0.6-0.8,1.4-1.5,2.4-2c-0.9-0.4-1.5-1-2-1.8c-0.5-0.8-0.7-1.6-0.7-2.6c0-1.7,0.5-3,1.6-4c1.1-1,2.6-1.5,4.4-1.5
	c1.9,0,3.4,0.5,4.4,1.5C81.1,77.3,81.7,78.6,81.7,80.3z M78.8,89.4c0-1-0.3-1.8-0.9-2.4c-0.6-0.6-1.4-0.9-2.3-0.9
	c-1,0-1.7,0.3-2.3,0.9c-0.6,0.6-0.9,1.4-0.9,2.4c0,1,0.3,1.8,0.8,2.3c0.6,0.6,1.4,0.9,2.4,0.9s1.8-0.3,2.3-0.8
	C78.5,91.2,78.8,90.4,78.8,89.4z M78.4,80.5c0-0.9-0.3-1.6-0.8-2.1c-0.5-0.6-1.2-0.8-2-0.8c-0.8,0-1.5,0.3-2,0.8
	c-0.5,0.5-0.7,1.3-0.7,2.2c0,0.9,0.2,1.6,0.7,2.2c0.5,0.5,1.2,0.8,2,0.8c0.8,0,1.5-0.3,2-0.8C78.1,82.1,78.4,81.4,78.4,80.5z
	 M93.8,86.7c-1.1,1.2-2.4,1.8-3.9,1.8c-1.8,0-3.1-0.6-4.2-1.8c-1-1.2-1.6-2.8-1.6-4.8c0-1.3,0.3-2.5,0.8-3.6
	c0.5-1.1,1.3-1.9,2.3-2.5c1-0.6,2.1-0.9,3.4-0.9c2,0,3.6,0.7,4.8,2.2c1.2,1.5,1.8,3.5,1.8,6V84c0,3.6-0.8,6.3-2.4,8.2
	c-1.6,1.9-4,2.8-7.3,2.9H87v-2.7h0.5c2,0,3.5-0.5,4.5-1.4C93.1,90,93.6,88.6,93.8,86.7z M90.6,85.8c0.7,0,1.3-0.2,1.9-0.6
	c0.6-0.4,1-0.9,1.4-1.6v-1.3c0-1.5-0.3-2.6-0.9-3.5c-0.6-0.9-1.4-1.3-2.3-1.3s-1.7,0.4-2.3,1.2c-0.6,0.8-0.8,1.8-0.8,3
	c0,1.2,0.3,2.3,0.9,3C88.9,85.5,89.6,85.8,90.6,85.8z M101.9,91.5c0.6,0,1.1,0.2,1.4,0.5c0.3,0.3,0.5,0.8,0.5,1.3
	c0,0.5-0.2,1-0.5,1.3c-0.3,0.3-0.8,0.5-1.4,0.5c-0.6,0-1.1-0.2-1.4-0.5c-0.3-0.3-0.5-0.8-0.5-1.3c0-0.5,0.2-1,0.5-1.3
	C100.8,91.7,101.2,91.5,101.9,91.5z M119.2,80.3c0,1-0.3,1.8-0.8,2.6c-0.5,0.8-1.2,1.4-2.1,1.8c1,0.5,1.8,1.1,2.4,2
	c0.6,0.8,0.8,1.8,0.8,2.8c0,1.8-0.6,3.1-1.8,4.2c-1.2,1-2.8,1.5-4.7,1.5c-2,0-3.6-0.5-4.8-1.5c-1.2-1-1.8-2.4-1.8-4.2
	c0-1.1,0.3-2,0.8-2.9c0.6-0.8,1.4-1.5,2.4-2c-0.9-0.4-1.5-1-2-1.8c-0.5-0.8-0.7-1.6-0.7-2.6c0-1.7,0.5-3,1.6-4
	c1.1-1,2.6-1.5,4.4-1.5c1.9,0,3.3,0.5,4.4,1.5C118.7,77.3,119.2,78.6,119.2,80.3z M116.3,89.4c0-1-0.3-1.8-0.9-2.4
	c-0.6-0.6-1.4-0.9-2.3-0.9s-1.7,0.3-2.3,0.9c-0.6,0.6-0.9,1.4-0.9,2.4c0,1,0.3,1.8,0.8,2.3c0.6,0.6,1.4,0.9,2.4,0.9
	c1,0,1.8-0.3,2.3-0.8C116.1,91.2,116.3,90.4,116.3,89.4z M115.9,80.5c0-0.9-0.2-1.6-0.8-2.1c-0.5-0.6-1.2-0.8-2-0.8
	c-0.8,0-1.5,0.3-2,0.8c-0.5,0.5-0.7,1.3-0.7,2.2c0,0.9,0.2,1.6,0.7,2.2c0.5,0.5,1.2,0.8,2,0.8c0.8,0,1.5-0.3,2-0.8
	C115.7,82.1,115.9,81.4,115.9,80.5z M135.2,76.9l-8,18.1h-3.5l7.9-17.2h-10.3v-2.7h13.8V76.9z M137,78.9c0-1.2,0.4-2.2,1.2-3
	c0.8-0.8,1.8-1.2,3-1.2c1.3,0,2.3,0.4,3.1,1.2c0.8,0.8,1.2,1.8,1.2,3v1c0,1.2-0.4,2.2-1.2,2.9c-0.8,0.8-1.8,1.1-3,1.1
	c-1.2,0-2.2-0.4-3-1.1c-0.8-0.8-1.2-1.8-1.2-3V78.9z M139.3,80c0,0.6,0.2,1.1,0.5,1.5c0.4,0.4,0.8,0.6,1.4,0.6c0.6,0,1-0.2,1.4-0.6
	c0.3-0.4,0.5-0.9,0.5-1.6v-1c0-0.6-0.2-1.1-0.5-1.5c-0.3-0.4-0.8-0.6-1.4-0.6s-1,0.2-1.4,0.6c-0.3,0.4-0.5,0.9-0.5,1.6V80z
	 M146.6,90.1c0-1.2,0.4-2.2,1.2-3c0.8-0.8,1.8-1.1,3-1.1c1.2,0,2.3,0.4,3,1.1c0.8,0.8,1.2,1.8,1.2,3.1v1c0,1.2-0.4,2.2-1.1,2.9
	c-0.8,0.8-1.8,1.1-3,1.1c-1.3,0-2.3-0.4-3.1-1.1c-0.8-0.8-1.2-1.8-1.2-3V90.1z M148.9,91.2c0,0.6,0.2,1.1,0.5,1.5
	c0.4,0.4,0.8,0.6,1.4,0.6c0.6,0,1-0.2,1.4-0.6c0.3-0.4,0.5-0.9,0.5-1.6v-1c0-0.6-0.2-1.1-0.5-1.5c-0.4-0.4-0.8-0.6-1.4-0.6
	c-0.6,0-1,0.2-1.4,0.6c-0.3,0.4-0.5,0.9-0.5,1.6V91.2z M141.9,93.5l-1.7-1l9.7-15.6l1.7,1L141.9,93.5z"/>
<path class="st3" d="M77.6,117v-8.5h2.8c0.9,0,1.6,0.2,2.1,0.6c0.5,0.4,0.7,0.9,0.7,1.7c0,0.4-0.1,0.8-0.3,1.1
	c-0.2,0.3-0.5,0.5-0.9,0.7c0.5,0.1,0.8,0.4,1.1,0.7c0.3,0.4,0.4,0.8,0.4,1.3c0,0.8-0.2,1.4-0.7,1.8c-0.5,0.4-1.2,0.7-2.1,0.7H77.6z
	 M78.8,113v3.1h1.9c0.5,0,0.9-0.1,1.2-0.4c0.3-0.3,0.5-0.6,0.5-1.1c0-1-0.6-1.5-1.7-1.5H78.8z M78.8,112.1h1.7
	c0.5,0,0.9-0.1,1.2-0.4c0.3-0.2,0.4-0.6,0.4-1c0-0.5-0.1-0.8-0.4-1c-0.3-0.2-0.7-0.3-1.2-0.3h-1.7V112.1z M88.4,117
	c-0.1-0.1-0.1-0.3-0.2-0.7c-0.5,0.5-1.1,0.8-1.8,0.8c-0.6,0-1.1-0.2-1.5-0.5c-0.4-0.4-0.6-0.8-0.6-1.3c0-0.7,0.2-1.2,0.8-1.5
	c0.5-0.4,1.2-0.6,2.1-0.6h1.1v-0.5c0-0.4-0.1-0.7-0.3-0.9c-0.2-0.2-0.6-0.3-1-0.3c-0.4,0-0.7,0.1-1,0.3c-0.3,0.2-0.4,0.4-0.4,0.7
	h-1.1c0-0.3,0.1-0.6,0.3-0.9c0.2-0.3,0.5-0.5,0.9-0.7c0.4-0.2,0.8-0.3,1.3-0.3c0.7,0,1.3,0.2,1.7,0.6c0.4,0.4,0.6,0.9,0.6,1.5v2.9
	c0,0.6,0.1,1,0.2,1.4v0.1H88.4z M86.6,116.2c0.3,0,0.7-0.1,1-0.3c0.3-0.2,0.5-0.4,0.7-0.7v-1.3h-0.9c-1.3,0-2,0.4-2,1.2
	c0,0.3,0.1,0.6,0.3,0.8C85.9,116.1,86.2,116.2,86.6,116.2z M94.2,115.3c0-0.3-0.1-0.5-0.3-0.7c-0.2-0.2-0.6-0.3-1.2-0.4
	c-0.5-0.1-1-0.3-1.3-0.4c-0.3-0.2-0.6-0.4-0.7-0.6c-0.2-0.2-0.2-0.5-0.2-0.8c0-0.5,0.2-1,0.7-1.3c0.4-0.4,1-0.5,1.7-0.5
	c0.7,0,1.3,0.2,1.7,0.6c0.4,0.4,0.7,0.8,0.7,1.4h-1.1c0-0.3-0.1-0.6-0.4-0.8c-0.2-0.2-0.6-0.3-0.9-0.3c-0.4,0-0.7,0.1-0.9,0.3
	c-0.2,0.2-0.3,0.4-0.3,0.7c0,0.3,0.1,0.5,0.3,0.6s0.6,0.3,1.1,0.4c0.5,0.1,1,0.3,1.3,0.4c0.3,0.2,0.6,0.4,0.7,0.6
	c0.2,0.2,0.2,0.5,0.2,0.9c0,0.6-0.2,1-0.7,1.4c-0.5,0.3-1,0.5-1.8,0.5c-0.5,0-1-0.1-1.3-0.3c-0.4-0.2-0.7-0.4-0.9-0.8
	c-0.2-0.3-0.3-0.7-0.3-1h1.1c0,0.4,0.2,0.7,0.4,0.9c0.3,0.2,0.6,0.3,1.1,0.3c0.4,0,0.7-0.1,1-0.2C94,115.8,94.2,115.6,94.2,115.3z
	 M98.8,117.1c-0.9,0-1.6-0.3-2.1-0.8c-0.5-0.6-0.8-1.3-0.8-2.3v-0.2c0-0.6,0.1-1.2,0.4-1.7c0.2-0.5,0.6-0.9,1-1.2
	c0.4-0.3,0.9-0.4,1.4-0.4c0.8,0,1.5,0.3,1.9,0.8c0.5,0.5,0.7,1.3,0.7,2.3v0.5H97c0,0.6,0.2,1.1,0.5,1.5c0.4,0.4,0.8,0.6,1.3,0.6
	c0.4,0,0.7-0.1,1-0.2c0.3-0.2,0.5-0.4,0.7-0.6l0.7,0.5C100.7,116.7,99.9,117.1,98.8,117.1z M98.7,111.4c-0.4,0-0.8,0.2-1.1,0.5
	c-0.3,0.3-0.5,0.8-0.6,1.3h3.2v-0.1c0-0.6-0.2-1-0.4-1.3C99.5,111.6,99.1,111.4,98.7,111.4z M101.8,113.8c0-1,0.2-1.8,0.7-2.3
	c0.5-0.6,1.1-0.9,1.8-0.9c0.7,0,1.3,0.3,1.8,0.8V108h1.1v9h-1l-0.1-0.7c-0.4,0.5-1,0.8-1.8,0.8c-0.7,0-1.3-0.3-1.8-0.9
	C102,115.6,101.8,114.8,101.8,113.8L101.8,113.8z M102.8,113.9c0,0.7,0.1,1.3,0.4,1.7c0.3,0.4,0.7,0.6,1.2,0.6
	c0.7,0,1.2-0.3,1.5-0.9v-2.9c-0.3-0.6-0.8-0.9-1.5-0.9c-0.5,0-0.9,0.2-1.2,0.6C103,112.5,102.8,113.1,102.8,113.9z M110.5,113.8
	c0-0.6,0.1-1.2,0.4-1.7c0.2-0.5,0.6-0.9,1-1.1c0.4-0.3,0.9-0.4,1.5-0.4c0.9,0,1.6,0.3,2.1,0.9c0.5,0.6,0.8,1.4,0.8,2.4v0.1
	c0,0.6-0.1,1.2-0.4,1.7c-0.2,0.5-0.6,0.9-1,1.1c-0.4,0.3-0.9,0.4-1.5,0.4c-0.9,0-1.6-0.3-2.1-0.9
	C110.8,115.6,110.5,114.8,110.5,113.8L110.5,113.8z M111.6,113.9c0,0.7,0.2,1.3,0.5,1.7c0.3,0.4,0.8,0.6,1.3,0.6
	c0.5,0,1-0.2,1.3-0.6c0.3-0.4,0.5-1,0.5-1.8c0-0.7-0.2-1.3-0.5-1.7c-0.3-0.4-0.8-0.6-1.3-0.6c-0.5,0-1,0.2-1.3,0.6
	C111.7,112.5,111.6,113.1,111.6,113.9z M118.1,110.7l0,0.8c0.5-0.6,1.1-0.9,1.9-0.9c1.3,0,2,0.8,2,2.3v4.2H121v-4.2
	c0-0.5-0.1-0.8-0.3-1c-0.2-0.2-0.5-0.3-1-0.3c-0.4,0-0.7,0.1-0.9,0.3c-0.3,0.2-0.5,0.4-0.6,0.7v4.5h-1.1v-6.3H118.1z M126.9,117
	h-1.1v-9h1.1V117z M129.3,117h-1.1v-6.3h1.1V117z M128.1,109c0-0.2,0.1-0.3,0.2-0.4c0.1-0.1,0.3-0.2,0.5-0.2s0.4,0.1,0.5,0.2
	c0.1,0.1,0.2,0.3,0.2,0.4c0,0.2-0.1,0.3-0.2,0.4c-0.1,0.1-0.3,0.2-0.5,0.2s-0.4-0.1-0.5-0.2C128.2,109.3,128.1,109.2,128.1,109z
	 M132.3,114.1l-0.7,0.7v2.2h-1.1v-9h1.1v5.4l0.6-0.7l2-2.1h1.3l-2.5,2.6l2.8,3.7h-1.3L132.3,114.1z M138.6,117.1
	c-0.9,0-1.6-0.3-2.1-0.8c-0.5-0.6-0.8-1.3-0.8-2.3v-0.2c0-0.6,0.1-1.2,0.4-1.7c0.2-0.5,0.6-0.9,1-1.2c0.4-0.3,0.9-0.4,1.4-0.4
	c0.8,0,1.5,0.3,1.9,0.8s0.7,1.3,0.7,2.3v0.5h-4.3c0,0.6,0.2,1.1,0.5,1.5c0.4,0.4,0.8,0.6,1.3,0.6c0.4,0,0.7-0.1,1-0.2
	c0.3-0.2,0.5-0.4,0.7-0.6l0.7,0.5C140.5,116.7,139.7,117.1,138.6,117.1z M138.5,111.4c-0.4,0-0.8,0.2-1.1,0.5
	c-0.3,0.3-0.5,0.8-0.6,1.3h3.2v-0.1c0-0.6-0.2-1-0.4-1.3C139.3,111.6,139,111.4,138.5,111.4z M145.6,115.3c0-0.3-0.1-0.5-0.3-0.7
	c-0.2-0.2-0.6-0.3-1.2-0.4c-0.5-0.1-1-0.3-1.3-0.4c-0.3-0.2-0.6-0.4-0.7-0.6c-0.2-0.2-0.2-0.5-0.2-0.8c0-0.5,0.2-1,0.7-1.3
	c0.4-0.4,1-0.5,1.7-0.5c0.7,0,1.3,0.2,1.7,0.6c0.5,0.4,0.7,0.8,0.7,1.4h-1.1c0-0.3-0.1-0.6-0.4-0.8c-0.2-0.2-0.6-0.3-1-0.3
	c-0.4,0-0.7,0.1-0.9,0.3c-0.2,0.2-0.3,0.4-0.3,0.7c0,0.3,0.1,0.5,0.3,0.6s0.6,0.3,1.1,0.4c0.5,0.1,1,0.3,1.3,0.4
	c0.3,0.2,0.6,0.4,0.7,0.6c0.2,0.2,0.2,0.5,0.2,0.9c0,0.6-0.2,1-0.7,1.4c-0.5,0.3-1,0.5-1.8,0.5c-0.5,0-1-0.1-1.3-0.3
	c-0.4-0.2-0.7-0.4-0.9-0.8c-0.2-0.3-0.3-0.7-0.3-1h1.1c0,0.4,0.2,0.7,0.4,0.9c0.3,0.2,0.6,0.3,1.1,0.3c0.4,0,0.7-0.1,1-0.2
	C145.4,115.8,145.6,115.6,145.6,115.3z"/>
<path class="st3" d="M5.7,129.4c0,1.3-0.2,2.2-0.7,2.8c-0.4,0.6-1.1,0.9-2,0.9c-0.9,0-1.6-0.3-2-0.9c-0.4-0.6-0.7-1.5-0.7-2.7v-1.4
	c0-1.3,0.2-2.2,0.7-2.8c0.4-0.6,1.1-0.9,2-0.9c0.9,0,1.6,0.3,2,0.9c0.4,0.6,0.7,1.5,0.7,2.7V129.4z M4.6,127.9c0-0.9-0.1-1.6-0.4-2
	c-0.3-0.4-0.7-0.6-1.2-0.6c-0.6,0-1,0.2-1.2,0.6s-0.4,1.1-0.4,1.9v1.7c0,0.9,0.1,1.6,0.4,2c0.3,0.4,0.7,0.7,1.2,0.7
	c0.5,0,0.9-0.2,1.2-0.6c0.3-0.4,0.4-1.1,0.4-2V127.9z M6.5,126.1c0-0.5,0.2-0.9,0.5-1.3c0.3-0.3,0.7-0.5,1.3-0.5
	c0.5,0,0.9,0.2,1.3,0.5c0.3,0.3,0.5,0.8,0.5,1.3v0.4c0,0.5-0.2,0.9-0.5,1.3c-0.3,0.3-0.7,0.5-1.2,0.5c-0.5,0-0.9-0.2-1.3-0.5
	c-0.3-0.3-0.5-0.8-0.5-1.3V126.1z M7.3,126.6c0,0.3,0.1,0.6,0.3,0.8c0.2,0.2,0.4,0.3,0.7,0.3c0.3,0,0.5-0.1,0.7-0.3
	c0.2-0.2,0.3-0.5,0.3-0.8v-0.4c0-0.3-0.1-0.6-0.3-0.8c-0.2-0.2-0.4-0.3-0.7-0.3s-0.5,0.1-0.7,0.3c-0.2,0.2-0.3,0.5-0.3,0.8V126.6z
	 M10.7,130.9c0-0.5,0.2-0.9,0.5-1.3c0.3-0.3,0.7-0.5,1.3-0.5c0.5,0,0.9,0.2,1.3,0.5c0.3,0.3,0.5,0.8,0.5,1.3v0.4
	c0,0.5-0.2,0.9-0.5,1.3c-0.3,0.3-0.7,0.5-1.2,0.5c-0.5,0-0.9-0.2-1.3-0.5c-0.3-0.3-0.5-0.8-0.5-1.3V130.9z M11.5,131.4
	c0,0.3,0.1,0.6,0.3,0.8c0.2,0.2,0.4,0.3,0.7,0.3c0.3,0,0.5-0.1,0.7-0.3c0.2-0.2,0.3-0.5,0.3-0.8v-0.4c0-0.3-0.1-0.6-0.3-0.8
	c-0.2-0.2-0.4-0.3-0.7-0.3c-0.3,0-0.5,0.1-0.7,0.3c-0.2,0.2-0.3,0.5-0.3,0.8V131.4z M8.5,132.4L7.9,132l4.2-6.7l0.6,0.4L8.5,132.4z"
	/>
<path class="st3" d="M206.9,133h-1.1v-7.2l-2.2,0.8v-1l3.1-1.2h0.2V133z M214.9,129.4c0,1.3-0.2,2.2-0.7,2.8c-0.4,0.6-1.1,0.9-2,0.9
	c-0.9,0-1.6-0.3-2-0.9c-0.4-0.6-0.7-1.5-0.7-2.7v-1.4c0-1.3,0.2-2.2,0.7-2.8c0.4-0.6,1.1-0.9,2-0.9c0.9,0,1.6,0.3,2,0.9
	c0.4,0.6,0.7,1.5,0.7,2.7V129.4z M213.9,127.9c0-0.9-0.1-1.6-0.4-2c-0.3-0.4-0.7-0.6-1.2-0.6c-0.6,0-1,0.2-1.2,0.6s-0.4,1.1-0.4,1.9
	v1.7c0,0.9,0.1,1.6,0.4,2c0.3,0.4,0.7,0.7,1.2,0.7c0.5,0,0.9-0.2,1.2-0.6c0.3-0.4,0.4-1.1,0.4-2V127.9z M221.2,129.4
	c0,1.3-0.2,2.2-0.6,2.8c-0.4,0.6-1.1,0.9-2,0.9c-0.9,0-1.6-0.3-2-0.9c-0.4-0.6-0.7-1.5-0.7-2.7v-1.4c0-1.3,0.2-2.2,0.7-2.8
	c0.4-0.6,1.1-0.9,2-0.9c0.9,0,1.6,0.3,2,0.9c0.4,0.6,0.7,1.5,0.7,2.7V129.4z M220.1,127.9c0-0.9-0.1-1.6-0.4-2
	c-0.3-0.4-0.7-0.6-1.2-0.6c-0.6,0-1,0.2-1.2,0.6c-0.3,0.4-0.4,1.1-0.4,1.9v1.7c0,0.9,0.1,1.6,0.4,2c0.3,0.4,0.7,0.7,1.2,0.7
	c0.5,0,0.9-0.2,1.2-0.6c0.3-0.4,0.4-1.1,0.4-2V127.9z M222,126.1c0-0.5,0.2-0.9,0.5-1.3c0.3-0.3,0.7-0.5,1.3-0.5
	c0.5,0,0.9,0.2,1.3,0.5c0.3,0.3,0.5,0.8,0.5,1.3v0.4c0,0.5-0.2,0.9-0.5,1.3c-0.3,0.3-0.7,0.5-1.2,0.5c-0.5,0-0.9-0.2-1.3-0.5
	c-0.3-0.3-0.5-0.8-0.5-1.3V126.1z M222.8,126.6c0,0.3,0.1,0.6,0.3,0.8c0.2,0.2,0.4,0.3,0.7,0.3c0.3,0,0.5-0.1,0.7-0.3
	c0.2-0.2,0.3-0.5,0.3-0.8v-0.4c0-0.3-0.1-0.6-0.3-0.8c-0.2-0.2-0.4-0.3-0.7-0.3s-0.5,0.1-0.7,0.3c-0.2,0.2-0.3,0.5-0.3,0.8V126.6z
	 M226.1,130.9c0-0.5,0.2-0.9,0.5-1.3c0.3-0.3,0.7-0.5,1.3-0.5c0.5,0,0.9,0.2,1.3,0.5c0.3,0.3,0.5,0.8,0.5,1.3v0.4
	c0,0.5-0.2,0.9-0.5,1.3c-0.3,0.3-0.7,0.5-1.2,0.5s-0.9-0.2-1.3-0.5c-0.3-0.3-0.5-0.8-0.5-1.3V130.9z M226.9,131.4
	c0,0.3,0.1,0.6,0.3,0.8c0.2,0.2,0.4,0.3,0.7,0.3c0.3,0,0.5-0.1,0.7-0.3c0.2-0.2,0.3-0.5,0.3-0.8v-0.4c0-0.3-0.1-0.6-0.3-0.8
	c-0.2-0.2-0.4-0.3-0.7-0.3c-0.3,0-0.5,0.1-0.7,0.3c-0.2,0.2-0.3,0.5-0.3,0.8V131.4z M224,132.4l-0.6-0.4l4.2-6.7l0.6,0.4L224,132.4z
	"/>
</svg>
