<svg width="20" height="20" viewBox="0 0 20 20" fill="none" xmlns="http://www.w3.org/2000/svg">
<path opacity="0.4" d="M14.6756 0H5.33333C1.92889 0 0 1.92889 0 5.33333V14.6667C0 18.0711 1.92889 20 5.33333 20H14.6756C18.08 20 20 18.0711 20 14.6667V5.33333C20 1.92889 18.08 0 14.6756 0Z" fill="white" fill-opacity="0.7"/>
<path d="M5.36872 7.36897C4.91539 7.36897 4.54205 7.74231 4.54205 8.20453V15.0756C4.54205 15.529 4.91539 15.9023 5.36872 15.9023C5.83094 15.9023 6.20428 15.529 6.20428 15.0756V8.20453C6.20428 7.74231 5.83094 7.36897 5.36872 7.36897Z" fill="white" fill-opacity="0.7"/>
<path d="M10.0354 4.08897C9.58207 4.08897 9.20874 4.46231 9.20874 4.92453V15.0756C9.20874 15.529 9.58207 15.9023 10.0354 15.9023C10.4976 15.9023 10.871 15.529 10.871 15.0756V4.92453C10.871 4.46231 10.4976 4.08897 10.0354 4.08897Z" fill="white" fill-opacity="0.7"/>
<path d="M14.6399 10.9957C14.1777 10.9957 13.8044 11.369 13.8044 11.8312V15.0757C13.8044 15.529 14.1777 15.9023 14.631 15.9023C15.0933 15.9023 15.4666 15.529 15.4666 15.0757V11.8312C15.4666 11.369 15.0933 10.9957 14.6399 10.9957Z" fill="white" fill-opacity="0.7"/>
</svg>
